<?xml version="1.0" encoding="UTF-8" standalone="no"?>

<!-- Created with Inkscape (http://www.inkscape.org/) -->
<svg id="svg2" xmlns:rdf="http://www.w3.org/1999/02/22-rdf-syntax-ns#" xmlns="http://www.w3.org/2000/svg" height="37.8mm" width="208.51mm" version="1.1" xmlns:cc="http://creativecommons.org/ns#" xmlns:dc="http://purl.org/dc/elements/1.1/" viewBox="0 0 738.80391 133.93764">
    <style type="text/css" media="screen">
    <![CDATA[
    g {
        fill: #6FA49C; 
    }
    ]]>
</style>
 <metadata id="metadata7">
  <rdf:RDF>
   <cc:Work rdf:about="">
    <dc:format>image/svg+xml</dc:format>
    <dc:type rdf:resource="http://purl.org/dc/dcmitype/StillImage"/>
    <dc:title/>
   </cc:Work>
  </rdf:RDF>
 </metadata>
 <g id="layer1" transform="translate(-1.7789 -4.3815)">
  <path id="path4249" d="m59.973 135.66c-10.358-5.88-19.795-15.24-23.315-23.13-1.632-3.66-4.238-13.005-5.792-20.773-3.1988-15.986-4.8526-19.941-8.3396-19.941-1.3388 0-2.4341-0.29591-2.4341-0.65759 0-0.36167 6.9719-7.6525 15.493-16.202 8.5213-8.5493 22.31-23.004 30.642-32.122 8.332-9.1181 15.617-16.111 16.188-15.539 0.92663 0.92663-30.118 35.514-48.637 54.187-6.1629 6.2142-6.8433 7.596-5.2274 10.615 1.0218 1.9092 3.5946 11.158 5.7174 20.553 2.1228 9.3948 5.0244 19.334 6.4479 22.086 3.1657 6.1218 13.938 15.05 25.073 20.78 5.2383 2.6957 7.0805 4.297 4.9852 4.3331-1.8279 0.0315-6.6884-1.853-10.801-4.1878zm7.416-4.13c-7.896-2.29-14.321-10.1-15.191-18.46-1.513-14.537 11.864-30.213 23.327-27.336 6.3257 1.5876 15.062 10.287 20.234 20.148l4.3576 8.3086-1.1204-8.3086c-3.203-23.75-10.248-41.76-16.998-43.454-6.5441-1.6425-10.482 2.124-15.897 15.206-0.3783 0.91395-1.1739 1.2157-1.768 0.67058-0.59409-0.54514 0.06855-3.7404 1.4725-7.1006 8.0874-19.356 22.26-16.292 30.021 6.4898 2.1682 6.3648 3.9615 9.9339 3.9851 7.9315 0.0512-4.349 3.2144-6.7715 5.0222-3.8464 0.70638 1.1429 1.8417 6.6601 2.523 12.26l1.2387 10.182 2.0632-11.632c2.5828-14.562 5.6338-21.883 12.27-29.441 6.3789-7.2652 12.34-9.0795 17.888-5.4443 5.4191 3.5507 6.9922 8.2813 8.9127 26.802 1.8004 17.363 4.9269 26.625 10.403 30.818 4.6767 3.5814 3.0317 5.4442-1.8117 2.0517-6.0674-4.2498-8.9871-12.214-11.266-30.728-2.4943-20.266-4.6547-26.147-10.108-27.516-9.4614-2.3746-19.434 11.83-23.117 32.928-3.3231 19.035-6.9004 22.065-8.5694 7.2585-0.46866-4.1579-1.6146-7.5598-2.5465-7.5598-1.1039 0-1.3265 5.1836-0.63878 14.872 0.58061 8.1797 0.4458 15.249-0.29958 15.71-0.74538 0.46067-3.73-4.288-6.6326-10.553-11.574-24.98-25.234-30.053-36.38-13.513-2.4444 3.6273-3.7763 8.0752-3.7763 12.612 0 13.394 10.498 20.336 28.073 18.565 8.3792-0.84454 8.9915-0.69837 6.0901 1.4539-3.539 2.6253-13.865 2.922-21.763 0.62523zm427.75-2.9919c-8.638-5.4781-13.798-11.486-16.659-19.398l-2.0088-5.5553-4.7828 3.4057c-7.0573 5.0252-7.7228 2.2267-0.95567-4.0192 4.7918-4.4226 6.22-7.3404 7.8871-16.112 3.2175-16.93 10.484-29.163 20.383-34.313 8.3043-4.3207 12.961-2.3651 12.961 5.4432 0 5.3406-5.9854 14.648-18.643 28.99-11.96 13.552-13.056 15.372-12.039 19.999 1.2956 5.8986 10.899 17.147 17.597 20.611 11.3 5.8432 22.893 1.1727 30.14-12.142l4.5898-8.4329-4.1265-4.9041c-2.2696-2.6972-6.0023-8.6387-8.2949-13.203-14.747-29.36-6.4579-72.264 13.519-69.974 3.3931 0.38897 5.5038 2.1329 7.6883 6.3522 2.6211 5.0627 2.9208 9.0447 2.3133 30.742-0.4361 15.577-1.784 29.501-3.5938 37.123l-2.896 12.197 4.6325 4.8353c4.8507 5.063 3.6394 6.5877-1.9032 2.3955-4.4817-3.3898-5.0407-3.2077-7.3626 2.398-1.1262 2.7189-5.313 7.9533-9.3039 11.632-9.3228 8.5934-17.752 9.1514-29.14 1.9291zm44.104-43.218c3.2141-16.943 3.5125-52.372 0.49164-58.373-3.1721-6.3017-9.7367-6.318-15.022-0.0373-12.795 15.205-9.6069 52.136 6.1855 71.663 4.3621 5.3935 4.9993 4.3816 8.3444-13.252zm-35.319-16.691c5.6332-8.8826 6.2301-15.094 1.4505-15.094-4.1789 0-14.393 8.9371-17.85 15.618-2.8638 5.5353-7.1207 20.178-7.0537 24.264 0.0522 3.1786 17.234-14.98 23.453-24.787zm-133.48 61.111c-2.4043-7.0558 6.0213-92.476 9.4608-95.916 2.2483-2.2483 2.0346 2.6538-0.93538 21.454-1.7976 11.379-3.7416 32.28-4.3201 46.446-0.99889 24.464-2.3496 33.462-4.2054 28.016zm-196.22-2.6043c-2.5134-0.38851-4.5697-1.4133-4.5697-2.2774 0-0.89303 2.772-1.1277 6.4233-0.54385 12.084 1.9322 31.796-10.152 31.796-19.492 0-3.7331 1.205-5.5953 5.0118-7.7454 9.2601-5.2302 10.565-21.242 3.3117-40.629-4.4556-11.909-16.522-30.276-18.555-28.244-0.82039 0.82039-2.6083 11.155-3.973 22.965-2.8612 24.761-5.2627 39.121-7.5469 45.129-2.8503 7.4969-3.3092 2.8909-0.80103-8.0403 1.9975-8.7057 7.3143-48.983 8.2031-62.143 0.15221-2.254-0.95981-3.4918-3.4557-3.8468-2.7765-0.39481-3.9428 0.52324-4.7499 3.7389-0.58837 2.3442-1.7364 4.2622-2.5513 4.2622-2.468 0-1.6653-4.39 1.5224-8.3267 4.7095-5.8159 11.489-3.3573 19.676 7.1355 14.626 18.745 22.595 42.724 18.976 57.097-1.0587 4.2044-1.7042 7.8639-1.4346 8.1323 1.7199 1.7118 23.548 8.8883 24.759 8.14 3.677-2.2725 0.73009-34.112-4.4795-48.397-1.9827-5.4368-3.5179-7.111-7.0095-7.6442-4.073-0.62196-3.994-0.70486 0.88711-0.93169 4.3597-0.20259 5.8238 0.65195 7.8586 4.5869 4.9267 9.5271 9.3638 45.015 6.5463 52.358-1.3673 3.563-7.9828 3.3147-18.534-0.69579-11.503-4.3722-12.224-4.2646-16.592 2.4802l-3.732 5.7616 3.9717 2.6023c15.828 10.371 38.53-1.2613 45.944-23.541 1.9741-5.9322 4.1232-17.653 4.7758-26.047 1.299-16.708 1.89-16.459 5.9082 2.4866 2.9787 14.045 6.9141 20.996 16.045 28.343 7.0365 5.6614 18.241 7.8894 22.384 4.4511 5.4877-4.5544 5.4052-8.4796-0.36815-17.505-3.0355-4.7453-6.8233-11.876-8.4172-15.847-3.7806-9.4178-3.9631-25.255-0.33298-28.89 2.4717-2.4752 2.9587-2.338 6.1636 1.7365 6.1299 7.793 10.648 22.458 11.729 38.071l1.0258 14.813 10.801 8.2489c10.81 8.2556 15.132 13.137 8.4801 9.5765-1.945-1.041-7.5276-5.1435-12.406-9.1167l-8.8692-7.2241-2.8305 4.7916c-4.9214 8.3313-16.31 8.4659-28.048 0.3316-8.0042-5.5469-12.706-12.106-16.368-22.837l-2.8709-8.4111-0.11649 6.0834c-0.16998 8.8734-5.7791 25.547-10.816 32.15-10.506 13.774-29.945 18.891-42.847 11.279l-6.0065-3.5439-3.0408 3.3601c-7.3044 8.0712-21.052 13.329-30.879 11.81zm40.29-27.271c0-0.91394-0.74778-1.1996-1.6617-0.63472-0.91395 0.56485-1.6617 1.7748-1.6617 2.6887 0 0.91394 0.74777 1.1996 1.6617 0.63472 0.91394-0.56485 1.6617-1.7748 1.6617-2.6887zm100.78-34.112c-3.8802-15.724-10.749-30.328-12.764-27.14-3.9763 6.2882-0.81737 22.356 7.1585 36.413 4.7412 8.3556 5.2434 8.7601 6.7328 5.4225 1.128-2.5279 0.79089-6.9233-1.1269-14.695zm95.13 32.231c-15.1-27.675-24.7-48.443-24.73-53.507-0.0294-4.7013 2.0854-1.5005 6.5328 9.8872 4.5349 11.612 31.981 63.851 33.586 63.926 0.59865 0.0279 1.3968-16.961 1.7736-37.753 0.63121-34.828 1.0522-39.21 5.3481-55.668 2.5646-9.8249 5.3184-17.863 6.1196-17.863 1.9233 0 2.076-0.96696-2.9353 18.588-3.945 15.394-4.4574 20.859-5.0353 53.696-0.70095 39.829-1.1354 44.036-4.5481 44.036-1.254 0-8.5026-11.404-16.108-25.341zm31.172 17.317c-4.1332-4.5672-3.6641-36.842 0.53558-36.842 0.67999 0 0.86539 7.0922 0.41197 15.76-1.164 22.253 2.967 26.322 14.896 14.674 3.449-3.3679 6.7649-5.6296 7.3686-5.0259 0.60367 0.60368-1.9118 4.107-5.59 7.7852-7.3783 7.3783-13.163 8.576-17.622 3.6488zm114.08-0.97157c-4.1255-3.5486-4.6624-5.1357-4.6624-13.782 0-12.01 3.0577-17.188 14.265-24.155l8.1681-5.0776v-11.263c0-10.208 0.41309-11.588 4.408-14.73 5.5855-4.3936 7.2887-2.98 2.5224 2.0935-2.8283 3.0106-3.607 5.8789-3.607 13.287v9.4478h15.483 15.483l2.9985-9.5549c2.1723-6.9221 5.1667-11.73 10.867-17.448 7.1934-7.2157 8.5498-7.8932 15.803-7.8932 25.572 0 33.171 32.23 9.4449 40.061-3.7895 1.2507-11.067 1.5687-20.527 0.89721-16.209-1.1506-17.046-0.5477-12.214 8.7961 7.4589 14.424 29.118 6.9073 44.779-15.541 3.769-5.4022 7.4384-9.6586 8.1542-9.4585 0.71577 0.20004 5.7554-3.76 11.199-8.8 15.43-14.286 26.862-14.223 36.258 0.19874 5.0041 7.6803 19.034 49.118 16.325 48.215-1.0949-0.36495-4.9854-9.5757-8.6456-20.468-11.991-35.684-18.949-41.609-36.095-30.735-8.6207 5.4671-15.381 15.769-17.01 25.92-0.58965 3.6745-1.7429 7.7663-2.5628 9.0929-2.9986 4.8518-3.6997-2.9033-1.081-11.957 2.8432-9.8297 2.481-9.5868-7.7505 5.1991-7.21 10.419-18.36 17.282-29.371 18.079-8.2718 0.59833-9.6611 0.20425-13.772-3.9062-2.6822-2.6822-4.9946-7.2169-5.5951-10.972l-1.0235-6.4005h-14.937c-14.713 0-14.92 0.0559-13.819 3.7389 0.61468 2.0564 1.5473 8.3532 2.0725 13.993 0.81866 8.7916 0.4138 11.129-2.8389 16.392-3.3154 5.3644-11.543 10.742-16.435 10.742-0.89233 0-3.7205-1.8047-6.2848-4.0104zm11.846-0.93332c9.1707-3.4867 13.208-17.46 9.2063-31.865-2.0739-7.4665-5.1584-7.1128-15.128 1.7345-5.9143 5.2485-6.9555 7.2048-7.6345 14.345-0.64025 6.7316-0.11616 9.1161 2.8212 12.837 4.0143 5.0851 4.6549 5.2611 10.735 2.9494zm81.467-42.495c8.6525-4.1059 11.441-13.209 6.7978-22.189-3.4628-6.6964-9.6542-10.135-18.25-10.135-6.2686 0-8.382 0.90117-13.042 5.5611-6.0009 6.0009-10.603 14.466-12.197 22.436-0.9354 4.677-0.64025 5.0428 4.5847 5.6828 13.61 1.6668 26.919 1.1044 32.106-1.3569zm-638.87 36.985c0-3.0083 1.1818-14.412 2.6261-25.341 1.4444-10.929 3.5963-32.21 4.782-47.29l2.156-27.419 0.203 19.21c0.11173 10.566-1.2836 31.129-3.1007 45.697s-3.3127 29.665-3.3234 33.55c-0.01077 3.8843-0.76735 7.0623-1.6813 7.0623s-1.6617-2.4613-1.6617-5.4696zm432.05-59.338c0-0.91395 0.74778-1.6617 1.6617-1.6617 0.91395 0 1.6617 0.74777 1.6617 1.6617 0 0.91394-0.74777 1.6617-1.6617 1.6617-0.91394 0-1.6617-0.74778-1.6617-1.6617zm-309.89-23.291c0.57406-0.92885 1.7398-1.2586 2.5906-0.73279 2.3049 1.4245 1.8751 2.4216-1.0438 2.4216-1.4249 0-2.121-0.75997-1.5469-1.6888z"/>
 </g>
</svg>
